<?xml version="1.0" standalone="no"?><!DOCTYPE svg PUBLIC "-//W3C//DTD SVG 1.1//EN" "http://www.w3.org/Graphics/SVG/1.1/DTD/svg11.dtd"><svg t="1740492506725" class="icon" viewBox="0 0 1024 1024" version="1.1" xmlns="http://www.w3.org/2000/svg" p-id="4561" xmlns:xlink="http://www.w3.org/1999/xlink" width="200" height="200"><path d="M186.098546 0.008h651.626909c51.415598 0 93.095273 41.679674 93.095273 93.095273v837.801454c0 51.415598-41.679674 93.095273-93.095273 93.095273H186.098546C134.682948 1024 93.003273 982.320326 93.003273 930.904727V93.103273C93.003273 41.687674 134.682948 0.008 186.098546 0.008z" fill="#4C4F6E" p-id="4562"></path><path d="M279.177819 930.904727H511.920001a46.543636 46.543636 0 0 1 0 93.095273H279.177819a46.543636 46.543636 0 1 1 0-93.095273z" fill="#2C2F53" p-id="4563"></path><path d="M186.098546 0.008h651.626909c51.415598 0 93.095273 41.679674 93.095273 93.095273v698.170545c0 51.415598-41.679674 93.087273-93.095273 93.087273H186.098546c-51.415598 0-93.095273-41.679674-93.095273-93.087273V93.103273C93.003273 41.687674 134.682948 0.008 186.098546 0.008z" fill="#999AAC" p-id="4564"></path><path d="M907.54091 698.178545a23.279818 23.279818 0 0 0-23.271818 23.279819v69.815454a46.543636 46.543636 0 0 1-46.543637 46.551636H186.098546a46.543636 46.543636 0 0 1-46.551636-46.551636V116.375091a23.271818 23.271818 0 1 0-46.543637-0.056v674.954727c0 51.415598 41.679674 93.095273 93.095273 93.095273h651.626909c51.415598 0 93.095273-41.679674 93.095273-93.095273v-69.815454a23.279818 23.279818 0 0 0-23.279818-23.279819z" fill="#7C7F95" p-id="4565"></path><path d="M232.642182 791.281818a46.551636 46.551636 0 1 1-93.103272-0.016 46.551636 46.551636 0 0 1 93.103272 0.008zM884.269092 791.281818a46.543636 46.543636 0 1 1-93.095273 0 46.543636 46.543636 0 0 1 93.095273 0zM232.642182 93.103273a46.543636 46.543636 0 1 1-93.087272-0.016 46.543636 46.543636 0 0 1 93.087272 0.016zM884.269092 93.103273a46.543636 46.543636 0 1 1-93.095273-0.016 46.543636 46.543636 0 0 1 93.095273 0.016z" fill="#4C4F6E" p-id="4566"></path><path d="M209.362364 0.008h605.091273a23.271818 23.271818 0 1 1 0 46.543636H209.362364a23.279818 23.279818 0 0 1 0-46.543636z" fill="#CACAD4" p-id="4567"></path><path d="M302.457637 930.904727H488.640182a23.279818 23.279818 0 0 1 0 46.551637H302.457637a23.279818 23.279818 0 0 1 0-46.551637z" fill="#1E2147" p-id="4568"></path><path d="M372.273092 186.182545h279.277818c51.407598 0 93.087273 41.679674 93.087273 93.095273v325.813455c0 51.415598-41.679674 93.087273-93.095273 93.087272H372.273092c-51.415598 0-93.095273-41.679674-93.095273-93.087272V279.277818c0-51.415598 41.679674-93.095273 93.095273-93.095273z" fill="#CACAD4" p-id="4569"></path><path d="M322.985477 677.818705a23.279818 23.279818 0 0 0 16.431871-39.75969 46.239639 46.239639 0 0 1-13.687893-32.959742V279.277818a46.767635 46.767635 0 0 1 30.239764-43.615659 23.279818 23.279818 0 0 0-16.255873-43.623659c-2.039984 0.767994-4.039968 1.599988-5.999953 2.48798h-0.008l-0.511996 0.239998-0.255998 0.112v0.007999l-0.111999 0.048-0.024 0.016-0.103999 0.048-0.024 0.008-0.239998 0.119999h-0.024l-0.127999 0.063999-0.079999 0.048-0.032 0.008-0.119999 0.055999-0.111999 0.056-0.056 0.024-0.103999 0.055999-0.087999 0.04-0.048 0.024-0.095999 0.039999-0.04 0.024-0.063999 0.032-0.056 0.032-0.063999 0.023999-0.056 0.032-0.095999 0.048-0.056 0.032-0.055999 0.023999-0.239999 0.112-0.079999 0.047999-0.063999 0.032-0.064 0.024-0.048 0.031999-0.063999 0.032-0.04 0.016-0.239998 0.119999-0.04 0.016-0.063999 0.04-0.04 0.016-0.071999 0.039999-0.024 0.016-0.167999 0.08h-0.008l-0.087999 0.055999h-0.016l-0.079999 0.048-0.303998 0.151999v0.007999l-0.079999 0.04-0.032 0.016a93.239272 93.239272 0 0 0-47.711627 61.887517v0.007999l-0.024 0.104c-0.04 0.143999-0.079999 0.295998-0.103999 0.439996l-0.095999 0.439997-0.024 0.103999v0.016l-0.088 0.431996-0.095999 0.431997v0.008l-0.016 0.103999-0.008 0.016-0.055999 0.303998v0.024l-0.024 0.079999v0.04l-0.024 0.087999v0.024l-0.063999 0.303997v0.016l-0.024 0.103999v0.016l-0.056 0.303998v0.016l-0.023999 0.095999v0.032l-0.024 0.087999v0.016l-0.056 0.303998-0.008 0.023999-0.016 0.096v0.031999l-0.055999 0.287998v0.032l-0.024 0.079999v0.04l-0.016 0.087999v0.032l-0.04 0.183999v0.015999l-0.015999 0.08v0.047999l-0.016 0.08-0.008 0.055999-0.008 0.072-0.008 0.008a1.439989 1.439989 0 0 1-0.032 0.183998v0.04l-0.016 0.079999-0.008 0.048-0.016 0.079999-0.008 0.04-0.015999 0.143999-0.008 0.056-0.016 0.063999-0.008 0.064-0.016 0.063999v0.064l-0.016 0.071999v0.048l-0.032 0.135999v0.047999l-0.016 0.08v0.039999l-0.023999 0.088v0.047999l-0.024 0.135999v0.056l-0.024 0.079999v0.04l-0.016 0.079999v0.056l-0.04 0.255998-0.007999 0.055999-0.008 0.072-0.008 0.055999-0.016 0.08-0.016 0.151998-0.016 0.08-0.008 0.063999-0.008 0.072-0.008 0.063999-0.008 0.072-0.016 0.055999-0.008 0.119999-0.015999 0.064v0.071999l-0.016 0.064v0.063999l-0.04 0.255998v0.048l-0.016 0.079999-0.016 0.119999v0.08l-0.016 0.047999-0.015999 0.127999v0.056l-0.016 0.071999v0.056l-0.016 0.079999v0.056l-0.008 0.095999-0.016 0.159999-0.008 0.063999-0.024 0.191999-0.016 0.095999-0.008 0.087999-0.008 0.072-0.007999 0.063999-0.008 0.064v0.055999l-0.008 0.08-0.008 0.055999-0.016 0.111999-0.016 0.143999v0.056l-0.008 0.079999-0.008 0.048-0.008 0.087999v0.111999l-0.016 0.048v0.079999l-0.016 0.056v0.135999l-0.023999 0.119999v0.135999l-0.016 0.055999v0.135999l-0.016 0.08v0.047999l-0.016 0.127999v0.056l-0.016 0.079999v0.135999l-0.016 0.048v0.127999l-0.016 0.032v0.151998l-0.008 0.096-0.008 0.039999-0.007999 0.111999v0.024l-0.008 0.127999-0.008 0.056-0.008 0.079999v0.048l-0.008 0.079999-0.008 0.064-0.008 0.119999v0.031999l-0.008 0.104v0.055999l-0.008 0.08-0.008 0.047999v0.103999l-0.008 0.04-0.008 0.127999v0.04l-0.008 0.087999v0.056l-0.008 0.095999v0.04l-0.008 0.127999-0.008 0.023999v0.119999l-0.007999 0.04v0.087999l-0.008 0.048v0.103999l-0.008 0.032-0.008 0.127999v0.143999l-0.008 0.048v0.263997l-0.016 0.024V274.949852l-0.016 0.111999v0.191999l-0.016 0.103999v0.175998l-0.016 0.135999v0.327998l-0.016 0.111999v0.335997l-0.015999 0.103999v0.495997l-0.016 0.111999V277.80583l-0.016 0.103999v328.621432l0.008 0.08v0.215998l0.008 0.08v0.287997l0.008 0.08v0.223998l0.008 0.095999v0.207999l0.007999 0.119999v0.023999l0.008 0.112v0.183998l0.008 0.095999v0.056l0.008 0.103999v0.143999l0.008 0.056v0.143998l0.008 0.08v0.071999l0.008 0.103999v0.048l0.008 0.111999v0.143999l0.008 0.04v0.143999l0.008 0.135999v0.015999l0.008 0.119999v0.024l0.008 0.151999 0.008 0.135999v0.008l0.008 0.135999v0.016l0.008 0.143999c0 0.159999 0.024 0.303998 0.031999 0.439996V611.075226l0.016 0.127999V611.347224l0.016 0.024V611.515223l0.016 0.135998v0.016l0.016 0.143999v0.151999l0.016 0.143999 0.016 0.135999V612.403216l0.023999 0.295997 0.016 0.143999v0.008l0.008 0.135999 0.008 0.016 0.008 0.143999 0.008 0.127999 0.008 0.024 0.008 0.143998a92.535277 92.535277 0 0 0 17.295865 46.223639l0.008 0.008 0.159998 0.215999 0.016 0.015999 0.143999 0.215999h0.008l0.08 0.111999h0.007999l0.072 0.111999 0.024 0.024 0.063999 0.079999 0.016 0.032 0.064 0.079999 0.015999 0.032 0.064 0.087999 0.024 0.024 0.063999 0.08 0.032 0.047999 0.056 0.064 0.031999 0.039999 0.04 0.072 0.04 0.055999 0.047999 0.064 0.048 0.048 0.04 0.055999 0.047999 0.064 0.04 0.047999 0.048 0.072 0.023999 0.039999 0.056 0.08 0.032 0.031999 0.071999 0.088 0.016 0.016 0.056 0.079999 0.087999 0.111999 0.024 0.032 0.063999 0.087999 0.024 0.024 0.159999 0.207998 0.016 0.008 0.079999 0.111999 0.079999 0.112h0.008c2.351982 3.015976 4.895962 5.879954 7.607941 8.583933a23.159819 23.159819 0 0 0 16.415872 6.783947z" fill="#7C7F95" p-id="4570"></path><path d="M395.54491 232.726182h232.726182a23.279818 23.279818 0 0 1 0 46.559636h-232.718182a23.279818 23.279818 0 0 1 0-46.559636z" fill="#EAEAEE" p-id="4571"></path></svg>